<?xml version="1.0" standalone="no"?>
<!DOCTYPE svg PUBLIC "-//W3C//DTD SVG 20010904//EN"
 "http://www.w3.org/TR/2001/REC-SVG-20010904/DTD/svg10.dtd">
<svg version="1.0" xmlns="http://www.w3.org/2000/svg"
 width="4096.000000pt" height="4096.000000pt" viewBox="0 0 4096.000000 4096.000000"
 preserveAspectRatio="xMidYMid meet">
<metadata>
Created by potrace 1.14, written by Peter Selinger 2001-2017
</metadata>
<g transform="translate(0.000000,4096.000000) scale(0.100000,-0.100000)"
fill="#000000" stroke="none">
<path d="M19295 31522 c-1 -1 -130 -5 -286 -7 -156 -2 -338 -7 -404 -10 -66
-3 -196 -7 -290 -10 -93 -3 -192 -7 -220 -9 -27 -3 -122 -8 -210 -11 -88 -4
-176 -8 -195 -10 -19 -2 -89 -6 -156 -10 -66 -3 -141 -8 -165 -10 -24 -2 -84
-6 -134 -9 -143 -10 -228 -17 -255 -21 -14 -2 -74 -7 -135 -10 -60 -3 -117 -8
-125 -10 -8 -2 -55 -6 -105 -10 -49 -3 -103 -8 -120 -11 -16 -2 -55 -6 -85 -9
-72 -6 -155 -14 -205 -19 -22 -2 -67 -7 -100 -10 -33 -4 -71 -8 -85 -11 -14
-2 -61 -7 -105 -11 -44 -3 -82 -8 -85 -9 -3 -2 -46 -7 -95 -10 -50 -4 -93 -9
-96 -11 -4 -2 -33 -6 -65 -9 -58 -6 -161 -19 -394 -50 -63 -8 -133 -17 -155
-20 -58 -7 -127 -17 -150 -21 -11 -3 -40 -7 -65 -10 -25 -3 -52 -7 -60 -9 -8
-2 -42 -7 -75 -11 -33 -3 -62 -7 -65 -9 -3 -2 -32 -6 -64 -10 -33 -3 -62 -8
-65 -9 -3 -2 -35 -7 -71 -11 -36 -4 -67 -8 -70 -10 -3 -2 -26 -6 -50 -10 -49
-7 -63 -9 -185 -30 -44 -8 -100 -17 -125 -20 -25 -3 -52 -8 -60 -10 -8 -2 -31
-7 -50 -10 -19 -3 -46 -8 -60 -10 -14 -3 -38 -7 -55 -10 -16 -2 -41 -7 -55
-10 -14 -3 -63 -12 -110 -20 -47 -8 -98 -17 -115 -20 -16 -3 -61 -12 -100 -20
-38 -8 -86 -17 -105 -20 -19 -3 -47 -8 -63 -11 -15 -2 -59 -11 -97 -19 -38 -8
-84 -17 -102 -20 -18 -3 -40 -8 -48 -10 -8 -2 -31 -7 -50 -10 -29 -5 -86 -17
-239 -50 -9 -2 -70 -15 -136 -30 -66 -14 -129 -28 -140 -30 -11 -3 -29 -7 -40
-9 -72 -15 -339 -77 -344 -80 -3 -2 -22 -7 -41 -10 -19 -3 -145 -33 -280 -67
-135 -33 -252 -62 -261 -64 -9 -2 -33 -8 -55 -14 -77 -21 -529 -143 -544 -147
-8 -2 -55 -15 -105 -29 -49 -15 -115 -33 -145 -41 -30 -8 -66 -18 -80 -23 -14
-5 -74 -24 -135 -41 -60 -17 -121 -35 -135 -40 -28 -10 -232 -73 -240 -75 -9
-2 -215 -68 -360 -116 -201 -66 -551 -188 -700 -243 -69 -26 -132 -48 -141
-51 -9 -2 -38 -12 -65 -24 -27 -11 -103 -40 -169 -65 -115 -43 -227 -87 -270
-105 -11 -5 -63 -26 -115 -46 -89 -35 -369 -150 -435 -180 -16 -7 -87 -38
-156 -68 -69 -31 -165 -74 -214 -96 -48 -23 -89 -41 -90 -41 -15 0 -819 -397
-965 -476 -316 -172 -424 -233 -785 -445 -22 -13 -42 -27 -43 -31 -2 -4 -8 -8
-13 -8 -5 0 -35 -16 -66 -36 -32 -20 -80 -51 -108 -68 -71 -45 -545 -361 -596
-398 -172 -125 -323 -237 -404 -300 -55 -43 -111 -87 -125 -97 -14 -11 -35
-28 -48 -39 -13 -11 -42 -35 -64 -54 -23 -18 -71 -58 -107 -88 -36 -30 -70
-58 -76 -63 -25 -19 -104 -89 -250 -221 -152 -138 -393 -374 -507 -497 -117
-127 -229 -254 -288 -328 -19 -24 -48 -60 -65 -80 -16 -21 -39 -50 -50 -65
-11 -16 -29 -40 -41 -55 -67 -84 -265 -379 -361 -536 -51 -85 -109 -190 -148
-273 -64 -134 -61 -126 -100 -237 -77 -218 -131 -453 -152 -660 -14 -138 -7
-545 11 -573 2 -4 7 -30 10 -58 3 -28 8 -57 10 -65 3 -8 7 -25 10 -39 8 -48
37 -155 63 -230 163 -480 454 -891 913 -1291 47 -41 105 -90 130 -109 25 -19
47 -37 50 -40 20 -21 339 -241 435 -299 211 -129 448 -251 693 -357 17 -8 48
-21 67 -30 31 -13 204 -80 260 -99 l20 -7 -20 14 c-11 8 -92 52 -180 98 -88
46 -177 94 -197 107 -21 12 -40 23 -43 23 -2 0 -39 21 -82 46 -43 26 -87 52
-98 58 -18 10 -109 67 -243 151 -91 58 -366 258 -403 294 -9 9 -36 32 -60 51
-191 152 -437 415 -586 626 -128 179 -212 328 -135 237 29 -35 276 -285 333
-338 93 -86 239 -212 324 -280 28 -21 52 -42 55 -45 3 -3 70 -54 150 -114 207
-155 587 -406 745 -491 11 -6 52 -30 90 -52 188 -108 521 -276 750 -378 83
-36 164 -72 180 -80 17 -7 91 -38 165 -68 170 -68 173 -69 185 -73 6 -1 49
-18 97 -37 49 -19 88 -33 88 -31 0 3 12 -2 28 -9 34 -18 309 -111 507 -172
249 -76 279 -85 300 -89 11 -2 54 -14 95 -26 41 -11 83 -23 93 -25 9 -2 45
-11 80 -20 34 -9 69 -18 77 -20 42 -9 202 -47 250 -60 49 -12 406 -86 485
-100 152 -26 275 -48 300 -52 17 -3 50 -8 73 -13 26 -5 40 -4 35 1 -5 5 -18
11 -29 13 -10 2 -48 14 -84 26 -36 12 -72 23 -81 25 -8 2 -38 10 -65 18 -27 8
-148 45 -269 81 -121 37 -247 76 -280 86 -33 11 -112 36 -175 56 -185 58 -450
144 -510 165 -30 11 -59 21 -65 23 -5 1 -35 10 -65 21 -30 10 -57 18 -60 18
-3 -1 -13 3 -23 8 -9 6 -70 28 -135 51 -64 22 -128 45 -142 51 -14 5 -29 11
-35 13 -13 3 -193 71 -222 84 -32 14 -55 23 -161 64 -239 93 -754 334 -932
436 -36 20 -85 48 -110 62 -25 14 -59 34 -76 44 -18 10 -58 35 -90 54 -55 32
-236 150 -259 167 -5 5 -59 44 -118 87 -189 137 -326 255 -528 456 -175 175
-334 357 -419 480 -13 19 -30 41 -36 47 -24 24 -161 249 -211 343 -75 143
-147 336 -158 421 -2 16 -6 32 -9 37 -3 5 -8 38 -11 75 -3 36 -8 76 -11 89 -5
28 -5 276 1 338 7 82 16 154 20 160 2 3 6 26 9 51 15 120 94 369 176 551 11
26 21 51 21 55 1 5 9 19 19 33 9 14 25 43 36 65 38 82 183 314 273 435 35 48
146 188 181 229 147 174 213 245 425 456 197 197 259 256 386 365 35 30 81 71
104 91 45 40 319 259 380 305 22 16 45 34 52 39 26 21 40 31 93 69 30 22 57
43 58 48 2 4 8 8 13 8 6 0 15 5 22 11 42 36 445 308 562 379 22 13 45 28 50
33 15 12 186 117 190 117 3 0 31 17 62 37 58 37 82 51 273 160 126 72 167 95
285 158 50 27 130 70 178 96 168 91 697 350 927 454 58 26 128 57 155 70 109
49 375 165 460 200 50 20 104 43 120 50 115 50 709 282 847 331 40 14 82 29
93 34 25 12 264 100 285 105 8 2 67 22 130 45 186 65 660 223 865 288 199 64
393 124 410 128 6 2 19 5 30 8 11 2 32 9 48 15 15 6 38 13 50 16 12 2 155 43
317 90 162 47 308 88 324 91 16 3 32 7 36 9 13 8 841 222 930 240 8 2 33 8 55
13 22 6 51 13 65 16 14 3 115 25 225 51 110 25 220 50 245 55 25 5 151 31 280
59 129 27 252 52 274 55 21 4 41 8 45 10 3 2 24 7 46 10 22 3 51 8 65 11 14 3
36 7 50 10 14 3 48 9 75 14 28 6 64 12 80 15 17 2 41 7 55 10 14 3 39 8 55 11
17 3 68 12 115 20 131 24 360 63 410 70 25 3 52 8 60 10 8 2 35 7 60 10 25 4
67 11 94 16 27 5 51 7 53 5 3 -2 18 0 34 4 16 5 52 12 81 15 28 4 59 8 70 10
16 3 145 22 288 41 19 2 44 6 55 9 11 2 47 7 80 10 33 3 72 8 86 11 41 6 109
15 157 19 23 2 55 6 70 9 15 3 56 8 92 11 36 3 79 7 95 10 17 3 50 7 75 10 63
5 159 15 195 20 17 2 66 7 110 11 44 3 87 8 97 9 9 2 58 7 109 10 51 4 101 8
111 10 10 2 62 7 115 10 54 3 109 8 123 10 14 2 72 6 130 10 58 3 125 8 150
10 76 7 201 15 295 20 50 3 122 7 160 10 39 3 122 7 185 10 63 2 171 7 240 10
767 38 2126 38 2800 1 52 -3 151 -8 220 -11 69 -3 157 -8 195 -11 39 -2 108
-7 155 -9 118 -7 228 -14 275 -20 22 -2 89 -7 150 -11 60 -3 112 -7 115 -9 3
-1 55 -6 115 -9 61 -4 117 -9 125 -11 8 -2 47 -7 85 -9 39 -3 111 -9 160 -15
50 -5 124 -13 165 -16 41 -3 82 -8 90 -10 8 -3 44 -7 80 -11 36 -3 76 -7 90
-9 14 -1 52 -6 85 -9 33 -4 69 -9 80 -11 11 -2 45 -7 75 -10 30 -3 87 -10 125
-15 39 -6 88 -12 110 -15 22 -3 56 -8 75 -10 19 -3 53 -8 75 -10 22 -3 51 -8
65 -10 14 -2 45 -7 70 -10 25 -3 56 -8 70 -10 29 -5 67 -11 130 -20 24 -4 47
-8 50 -10 3 -2 32 -6 64 -10 33 -3 62 -8 65 -9 3 -2 29 -7 56 -10 28 -4 57 -9
65 -11 8 -2 33 -6 55 -10 22 -3 76 -12 120 -21 44 -9 94 -17 110 -19 17 -2
100 -18 185 -35 85 -17 166 -33 180 -35 40 -8 56 -11 235 -50 94 -21 179 -39
190 -41 32 -5 179 -40 340 -79 83 -20 161 -39 174 -41 14 -3 28 -7 33 -10 4
-3 18 -7 30 -9 97 -18 808 -221 903 -258 17 -6 35 -12 41 -13 25 -4 477 -159
594 -204 30 -12 60 -23 65 -24 6 -2 24 -8 40 -15 17 -6 66 -25 110 -42 91 -35
250 -99 310 -125 22 -9 42 -18 45 -19 14 -5 67 -28 113 -49 29 -13 111 -50
182 -82 220 -98 648 -315 780 -396 17 -10 37 -21 45 -25 20 -9 280 -165 360
-217 139 -88 334 -221 415 -283 6 -5 37 -28 70 -53 338 -253 655 -545 946
-871 96 -108 297 -370 354 -461 17 -27 33 -48 38 -48 4 0 7 -4 7 -10 0 -5 25
-49 57 -97 107 -167 232 -437 305 -658 27 -85 100 -357 113 -421 18 -95 42
-243 50 -309 4 -27 8 -57 10 -65 2 -8 7 -53 10 -100 4 -47 10 -127 14 -179 8
-107 6 -412 -3 -510 -3 -36 -9 -97 -12 -136 -12 -158 -65 -428 -117 -600 -12
-38 -22 -72 -22 -75 -1 -3 -5 -13 -9 -22 -4 -9 -9 -22 -10 -30 -2 -7 -8 -26
-14 -41 -7 -16 -12 -30 -12 -32 0 -3 -11 -29 -25 -59 -14 -30 -25 -58 -25 -61
0 -32 -242 -483 -353 -660 -77 -123 -329 -469 -367 -505 -3 -3 -25 -30 -50
-60 -24 -30 -63 -75 -86 -100 -22 -25 -69 -76 -105 -115 -85 -93 -251 -258
-374 -372 -102 -93 -109 -99 -191 -168 -26 -22 -52 -45 -58 -50 -56 -51 -372
-296 -494 -383 -224 -159 -488 -333 -697 -459 -107 -64 -466 -273 -470 -273
-2 0 -74 -39 -161 -86 -139 -75 -711 -361 -849 -424 -27 -13 -88 -41 -135 -63
-223 -104 -704 -313 -980 -427 -121 -50 -173 -72 -215 -90 -11 -5 -56 -23
-100 -41 -44 -17 -93 -37 -110 -44 -16 -7 -97 -40 -180 -73 -82 -33 -208 -83
-280 -112 -71 -29 -134 -53 -140 -55 -5 -1 -26 -9 -45 -17 -44 -19 -74 -31
-80 -33 -3 0 -66 -24 -140 -53 -133 -52 -195 -78 -157 -67 10 2 70 19 133 35
63 17 203 58 312 91 108 33 202 61 207 63 508 150 1281 436 1785 659 477 211
1116 539 1387 713 29 19 56 34 59 34 2 0 17 8 32 19 15 10 72 47 127 81 404
254 873 597 1165 852 14 12 56 49 95 83 38 33 79 69 91 80 11 11 64 61 118
110 142 131 381 375 522 532 169 188 296 342 437 528 59 77 110 145 115 150 4
6 28 39 52 75 25 36 48 67 51 70 3 3 38 55 77 115 91 140 112 167 65 85 -105
-186 -404 -615 -591 -850 -121 -152 -256 -312 -390 -460 -104 -116 -485 -496
-607 -605 -55 -50 -105 -95 -111 -101 -6 -5 -35 -30 -64 -55 -29 -24 -63 -53
-75 -64 -13 -11 -40 -33 -61 -50 -21 -16 -42 -35 -48 -40 -31 -30 -182 -148
-346 -271 -225 -168 -202 -152 -385 -277 -130 -88 -190 -127 -385 -252 -116
-74 -340 -207 -455 -271 -38 -22 -78 -43 -87 -49 -9 -5 -41 -23 -70 -39 -29
-16 -77 -42 -106 -58 -246 -136 -761 -383 -1122 -538 -221 -94 -434 -181 -625
-255 -66 -25 -145 -56 -175 -68 -30 -12 -57 -22 -60 -22 -6 0 -127 -44 -155
-55 -11 -5 -65 -24 -120 -43 -55 -19 -140 -49 -190 -67 -49 -17 -97 -33 -105
-35 -8 -2 -55 -18 -105 -35 -49 -17 -98 -33 -108 -35 -10 -2 -44 -13 -75 -24
-31 -10 -111 -36 -177 -56 -66 -20 -131 -41 -145 -45 -14 -5 -151 -45 -305
-90 -154 -44 -312 -89 -350 -100 -39 -11 -79 -22 -90 -25 -11 -2 -90 -23 -175
-45 -296 -78 -425 -112 -445 -115 -11 -2 -47 -11 -80 -20 -33 -8 -73 -17 -90
-20 -16 -3 -43 -10 -60 -15 -16 -5 -90 -23 -163 -40 -149 -35 -140 -33 -237
-54 -38 -9 -101 -23 -140 -32 -38 -8 -81 -17 -95 -20 -14 -3 -33 -7 -42 -10
-10 -3 -28 -7 -40 -9 -13 -3 -77 -16 -143 -30 -66 -15 -286 -60 -490 -101
-457 -91 -462 -92 -505 -99 -19 -3 -42 -8 -51 -11 -10 -2 -31 -6 -49 -9 -17
-2 -43 -6 -58 -10 -44 -9 -180 -35 -217 -40 -11 -2 -60 -11 -110 -20 -49 -9
-101 -18 -115 -20 -14 -2 -74 -12 -135 -24 -60 -11 -130 -23 -155 -26 -24 -4
-47 -8 -50 -10 -3 -2 -30 -6 -60 -10 -29 -3 -56 -8 -60 -10 -3 -2 -30 -6 -60
-10 -30 -3 -71 -10 -90 -15 -19 -4 -58 -11 -87 -14 -28 -3 -57 -8 -65 -10 -7
-3 -31 -7 -53 -10 -22 -3 -83 -13 -135 -21 -52 -9 -111 -18 -130 -21 -19 -3
-56 -9 -83 -14 -26 -6 -51 -9 -55 -9 -4 1 -9 1 -12 -1 -3 -1 -16 -3 -30 -5
-14 -2 -74 -11 -135 -20 -60 -10 -123 -19 -140 -21 -16 -2 -55 -9 -85 -14 -30
-5 -77 -13 -105 -16 -27 -3 -52 -7 -55 -9 -3 -2 -35 -7 -70 -10 -36 -4 -68 -8
-71 -11 -3 -2 -33 -6 -65 -9 -32 -4 -66 -8 -75 -11 -9 -2 -36 -7 -60 -9 -24
-3 -55 -7 -69 -10 -14 -3 -45 -7 -69 -10 -58 -6 -124 -16 -131 -20 -3 -1 -36
-6 -75 -10 -38 -4 -72 -8 -75 -10 -4 -2 -31 -6 -61 -9 -30 -4 -76 -10 -104
-15 -40 -8 -30 -9 49 -5 55 3 102 7 105 9 3 2 49 6 101 10 52 4 97 8 100 10 3
2 43 6 90 9 47 4 96 9 110 11 14 2 54 7 90 10 36 3 99 10 140 15 41 5 107 12
145 15 39 4 77 8 85 10 8 2 65 10 125 16 61 6 121 13 135 15 14 1 50 5 80 8
30 4 66 8 80 11 14 2 54 7 90 10 36 4 72 8 80 10 8 2 44 7 80 10 36 3 72 8 80
10 8 2 44 7 80 10 36 3 72 8 80 10 8 2 35 6 60 9 155 19 297 38 310 41 8 2 40
7 70 10 30 3 66 7 80 10 14 2 45 7 70 10 25 3 56 8 70 10 14 3 45 7 70 10 25
3 68 9 95 15 28 5 75 12 105 16 30 3 57 7 60 9 3 2 34 6 70 10 36 4 68 9 71
11 3 2 26 6 50 9 24 3 69 9 99 15 30 5 75 12 100 15 24 4 47 8 50 10 4 2 28 6
56 10 27 3 56 7 64 10 8 2 33 6 55 10 22 3 90 14 150 25 61 11 128 22 150 25
22 4 47 8 55 10 8 3 33 7 55 10 22 4 47 8 55 10 8 3 33 7 55 10 22 4 47 8 55
10 8 2 31 7 50 10 19 3 80 15 135 26 55 10 111 21 125 24 14 3 36 7 50 10 14
3 34 7 45 9 122 24 314 64 465 97 102 23 193 43 203 45 10 2 26 5 35 8 9 3 28
7 42 10 14 2 57 12 95 21 39 9 77 18 85 20 8 2 35 8 60 15 25 7 54 14 65 16
41 8 283 67 350 86 39 10 81 21 93 24 24 5 56 13 222 59 52 14 102 27 110 29
50 13 190 53 355 101 105 30 199 58 209 60 11 3 78 23 149 46 71 22 138 42
148 44 10 2 26 8 36 13 10 6 21 10 26 10 4 0 38 10 75 22 37 12 74 23 82 25 8
2 35 11 60 20 25 9 52 18 60 20 8 2 56 18 105 35 50 17 97 33 105 35 8 2 40
13 70 25 30 12 62 23 70 25 8 2 67 22 130 45 63 23 144 52 180 65 103 36 444
166 525 200 17 7 71 29 121 48 89 34 511 213 616 261 29 13 89 41 133 61 195
88 297 138 560 271 282 142 355 180 497 260 43 24 82 44 88 44 5 0 10 5 10 10
0 6 5 10 11 10 11 0 146 78 394 228 119 73 590 379 620 404 13 11 106 79 135
98 21 14 266 199 300 227 217 174 232 187 244 198 6 6 58 51 116 100 291 250
618 582 862 876 429 518 778 1120 961 1659 45 134 108 379 122 474 3 21 7 41
9 45 2 3 7 33 11 66 3 32 8 62 10 65 2 3 7 40 10 81 3 41 10 110 14 154 9 89
9 614 -1 630 -3 6 -9 53 -13 105 -3 52 -8 97 -10 100 -2 3 -6 31 -9 62 -3 31
-8 63 -11 70 -4 12 -9 41 -20 118 -2 14 -11 59 -20 100 -9 41 -19 86 -21 100
-6 29 -35 137 -69 260 -13 47 -42 139 -65 205 -23 66 -42 125 -44 130 -3 11
-5 15 -56 146 -112 282 -287 618 -450 864 -81 122 -217 310 -255 351 -5 6 -35
39 -65 74 -30 35 -75 86 -100 114 -73 82 -348 355 -444 441 -49 44 -97 87
-105 95 -9 8 -63 53 -121 100 -58 47 -107 88 -110 91 -16 21 -325 248 -480
355 -189 129 -560 364 -576 364 -2 0 -21 11 -42 23 -34 22 -106 63 -227 128
-69 38 -619 314 -625 314 -3 0 -32 13 -65 29 -33 15 -78 35 -100 43 -22 9 -44
19 -50 23 -5 4 -104 47 -220 94 -115 48 -219 91 -230 96 -11 4 -36 13 -55 20
-19 7 -49 18 -66 26 -118 52 -844 302 -927 319 -9 2 -22 7 -28 11 -6 4 -25 10
-43 15 -17 4 -78 22 -136 39 -125 38 -226 67 -297 86 -29 8 -78 21 -108 29
-30 8 -81 22 -112 31 -143 38 -582 146 -598 145 -2 0 -19 5 -37 10 -18 5 -67
17 -108 25 -41 9 -82 18 -90 19 -93 21 -212 47 -240 51 -19 3 -38 8 -41 10 -3
2 -21 6 -40 9 -19 3 -54 9 -79 15 -25 5 -97 19 -160 30 -63 12 -135 25 -160
30 -51 11 -165 31 -195 35 -11 2 -103 17 -205 34 -102 17 -203 33 -225 36 -22
3 -50 8 -62 10 -12 3 -46 8 -75 11 -29 3 -62 8 -72 11 -10 3 -41 7 -68 9 -27
2 -52 5 -56 8 -4 2 -36 7 -72 11 -36 4 -72 8 -80 10 -14 3 -76 10 -165 21 -22
2 -51 7 -65 9 -14 2 -54 7 -90 11 -36 3 -72 7 -80 9 -16 3 -86 11 -180 20 -30
3 -73 8 -95 11 -22 3 -56 7 -75 9 -19 2 -111 11 -205 20 -183 17 -224 21 -325
29 -153 13 -189 16 -255 21 -38 3 -95 7 -125 9 -30 3 -104 8 -165 11 -60 3
-132 8 -160 10 -27 3 -102 7 -165 10 -63 2 -151 7 -195 10 -44 3 -143 8 -220
10 -453 15 -574 18 -702 19 -79 1 -143 5 -143 9 0 5 -4 6 -9 3 -4 -3 -30 -6
-57 -6 -27 0 -58 0 -69 0 -25 0 -105 1 -218 3 -48 1 -87 -1 -87 -5 0 -4 -7 -5
-15 -2 -15 6 -294 12 -300 6z"/>
<path d="M17167 26430 c70 -134 131 -293 183 -480 18 -63 59 -245 65 -285 1
-11 5 -36 9 -55 4 -19 9 -48 11 -65 2 -16 4 -30 5 -30 1 0 3 -16 5 -35 1 -19
6 -64 10 -100 32 -282 37 -644 14 -900 -5 -52 -11 -124 -14 -160 -3 -36 -7
-75 -9 -87 -3 -12 -7 -48 -11 -80 -3 -32 -8 -65 -10 -73 -2 -8 -6 -33 -9 -55
-7 -48 -16 -88 -56 -260 -52 -225 -34 -197 -168 -264 -64 -32 -157 -82 -206
-110 -49 -28 -93 -51 -97 -51 -5 0 -9 -4 -9 -10 0 -5 -5 -10 -10 -10 -13 0
-159 -91 -474 -294 -465 -301 -720 -447 -986 -564 -125 -55 -296 -122 -324
-126 -6 -1 -16 -5 -21 -8 -10 -6 -138 -43 -193 -55 -21 -5 -22 -3 -17 28 3 19
11 52 17 74 5 22 11 49 13 60 1 11 6 36 10 55 5 19 9 37 10 40 1 3 4 19 8 35
4 17 9 39 12 50 2 11 18 83 35 160 17 77 33 154 36 170 2 17 7 37 9 45 2 8 7
31 10 50 3 19 8 46 10 60 3 14 8 43 10 65 3 22 7 51 10 65 34 181 39 496 11
645 -4 17 -9 47 -12 68 -4 21 -8 36 -10 34 -2 -2 -26 -82 -53 -178 -28 -96
-62 -208 -76 -249 -14 -41 -28 -84 -30 -95 -5 -24 -106 -308 -168 -475 -313
-840 -371 -1006 -447 -1288 -15 -56 -29 -104 -31 -105 -2 -2 -18 -14 -35 -28
-17 -13 -45 -35 -64 -49 -18 -14 -117 -92 -219 -175 -102 -82 -231 -186 -286
-230 -55 -44 -107 -87 -116 -95 -9 -8 -35 -31 -59 -49 -23 -19 -48 -40 -54
-45 -6 -6 -65 -56 -131 -111 -66 -55 -142 -120 -170 -144 -27 -24 -61 -53 -75
-65 -56 -48 -186 -161 -205 -178 -34 -30 -69 -61 -131 -115 -32 -28 -71 -62
-85 -75 -14 -12 -61 -54 -104 -93 -43 -38 -88 -79 -100 -90 -11 -11 -45 -42
-75 -69 -30 -28 -104 -95 -164 -150 -59 -56 -124 -116 -145 -135 -168 -156
-408 -389 -695 -677 -343 -342 -443 -446 -656 -673 -63 -68 -132 -142 -154
-165 -21 -22 -66 -72 -100 -110 -33 -38 -68 -76 -77 -85 -9 -9 -42 -45 -74
-81 -31 -36 -74 -83 -94 -105 -32 -34 -144 -162 -203 -230 -9 -11 -27 -31 -39
-45 -11 -14 -38 -45 -58 -70 -20 -25 -43 -52 -52 -60 -13 -12 -134 -155 -189
-224 -8 -10 -20 -23 -25 -30 -6 -6 -30 -36 -55 -66 -25 -30 -53 -64 -62 -75
-114 -139 -188 -230 -313 -390 -82 -104 -152 -192 -155 -195 -11 -9 -462 -615
-540 -725 -41 -59 -80 -112 -85 -118 -6 -7 -21 -29 -34 -50 -13 -21 -28 -43
-34 -50 -11 -11 -54 -73 -131 -187 -16 -25 -32 -47 -35 -50 -4 -3 -10 -13 -16
-22 -5 -9 -80 -121 -166 -250 -187 -280 -401 -615 -546 -856 -106 -177 -124
-207 -196 -330 -23 -40 -46 -81 -52 -90 -14 -25 -149 -259 -175 -307 -13 -22
-34 -60 -48 -85 -14 -25 -45 -81 -70 -125 -25 -44 -61 -109 -80 -145 -19 -36
-47 -89 -63 -117 -39 -70 -182 -357 -182 -363 1 -3 -7 -16 -16 -30 -15 -21
-52 -101 -162 -345 -87 -196 -252 -632 -285 -755 -2 -8 -21 -78 -43 -155 -22
-78 -42 -152 -45 -165 -2 -14 -11 -51 -20 -83 -8 -32 -18 -77 -21 -100 -4 -23
-8 -44 -10 -47 -2 -4 -11 -49 -19 -101 -9 -52 -18 -107 -21 -124 -12 -73 -15
-94 -21 -165 -3 -41 -8 -78 -10 -82 -2 -3 -7 -71 -10 -150 -3 -78 -7 -158 -8
-175 -2 -18 0 -33 3 -33 9 0 202 205 290 308 39 45 103 126 143 180 40 53 75
99 78 102 3 3 21 28 40 55 19 28 38 51 42 53 4 2 8 10 8 17 0 8 6 20 13 27 20
20 117 171 192 298 38 63 81 135 97 159 15 25 28 50 28 58 0 7 3 13 8 13 4 0
12 10 17 23 17 35 79 151 85 157 3 3 16 28 29 55 13 28 31 58 39 68 8 9 12 17
7 17 -4 0 -2 6 4 14 6 8 109 209 227 447 294 592 495 992 504 1004 4 6 36 64
70 130 35 66 73 136 85 155 12 19 39 67 60 105 21 39 44 77 51 85 7 8 14 20
15 25 1 6 7 19 14 30 16 26 156 264 171 290 20 36 185 309 208 345 25 38 194
309 211 337 11 18 43 68 189 293 128 197 425 638 490 727 17 23 71 99 121 170
49 70 95 134 102 141 7 7 13 17 13 21 0 4 8 16 18 27 10 10 28 35 42 54 24 36
273 370 296 399 7 9 68 88 135 176 116 151 307 394 319 405 3 3 32 39 65 80
32 41 64 80 70 87 5 7 15 18 20 25 36 44 219 265 269 323 34 39 81 95 106 125
25 29 50 58 55 64 6 6 39 45 75 86 36 41 84 95 106 120 23 25 57 63 75 85 19
21 41 46 49 55 25 28 93 102 155 170 362 400 910 955 1384 1400 73 69 166 157
206 195 114 111 471 454 534 515 58 55 144 136 301 285 105 99 260 240 320
291 24 22 67 59 95 84 132 119 437 367 570 465 22 16 42 31 45 34 33 37 516
351 539 351 6 0 11 3 11 8 0 4 10 12 23 18 12 6 78 40 147 75 210 108 354 167
590 244 204 65 499 141 670 170 19 3 85 15 145 25 61 11 130 22 155 25 25 3
52 8 60 10 8 3 44 7 80 10 36 3 72 7 80 10 8 2 42 6 75 9 130 12 201 18 230
22 101 11 354 19 645 19 361 0 537 -7 780 -31 41 -4 78 -7 82 -6 4 1 31 -3 60
-8 29 -5 77 -12 106 -14 30 -3 68 -8 85 -11 18 -3 46 -7 62 -10 34 -6 245 -42
290 -50 17 -3 38 -8 47 -11 9 -3 27 -7 40 -9 13 -2 41 -9 63 -14 22 -6 81 -20
130 -31 50 -12 101 -26 115 -31 14 -5 34 -11 45 -13 11 -3 83 -25 161 -50 360
-117 680 -277 924 -463 l45 -35 -50 46 c-159 147 -479 354 -720 466 -38 18
-92 43 -119 56 -28 13 -53 24 -57 24 -3 0 -28 10 -55 22 -27 12 -53 23 -59 24
-5 1 -39 14 -74 28 -122 49 -439 147 -586 182 -33 8 -67 16 -75 18 -78 21
-188 44 -355 75 -27 6 -75 15 -105 20 -30 6 -71 13 -90 16 -19 2 -82 11 -140
19 -130 19 -166 23 -255 32 -38 3 -72 8 -75 9 -3 2 -57 7 -120 10 -63 4 -118
9 -121 11 -3 1 -75 6 -160 9 -85 4 -179 8 -209 11 -72 5 -696 5 -735 -1 -16
-2 -97 -6 -179 -9 -126 -5 -148 -3 -135 8 12 12 379 259 435 293 93 57 360
223 401 250 28 18 54 33 57 33 3 0 30 16 60 35 30 19 58 35 61 35 4 0 19 8 33
19 15 10 47 29 72 43 25 14 117 66 205 115 88 49 210 116 270 148 61 32 143
76 184 97 103 56 661 335 806 403 220 105 607 285 611 285 3 0 41 17 87 39 45
21 99 46 120 55 252 114 590 263 892 393 121 52 238 103 260 113 22 10 153 66
290 125 138 59 264 113 280 120 42 19 394 171 485 209 41 17 84 37 95 44 19
11 19 12 -5 8 -62 -11 -318 -73 -485 -118 -60 -16 -117 -31 -125 -33 -25 -6
-247 -71 -370 -108 -268 -82 -818 -273 -985 -342 -11 -5 -22 -9 -25 -10 -10
-2 -126 -46 -145 -54 -11 -5 -74 -30 -140 -56 -66 -26 -133 -53 -150 -60 -16
-7 -79 -33 -140 -58 -168 -68 -423 -175 -468 -197 -22 -11 -44 -20 -48 -20 -4
0 -42 -16 -86 -36 -83 -38 -91 -41 -168 -75 -27 -11 -63 -27 -80 -34 -16 -7
-59 -26 -95 -43 -36 -16 -90 -40 -120 -52 -30 -13 -59 -27 -64 -32 -6 -4 -18
-8 -28 -8 -10 0 -18 -4 -18 -10 0 -5 -6 -10 -13 -10 -11 0 -233 -97 -404 -176
-28 -13 -54 -24 -56 -24 -2 0 -40 -17 -83 -37 -43 -20 -81 -38 -84 -38 -3 -1
-21 -8 -40 -17 -19 -9 -71 -31 -115 -50 -44 -20 -106 -47 -138 -62 -32 -14
-59 -26 -61 -26 -3 0 -26 -10 -53 -22 -26 -12 -50 -22 -53 -23 -3 -1 -18 -7
-35 -15 -16 -7 -46 -20 -65 -28 -19 -8 -39 -17 -43 -20 -5 -2 -5 4 1 14 18 36
63 206 78 299 2 11 6 34 9 50 22 122 30 247 30 465 0 177 -11 425 -19 439 -2
3 -7 31 -10 62 -4 31 -8 65 -10 75 -2 11 -7 39 -11 64 -9 56 -13 78 -20 110
-3 14 -7 36 -10 50 -15 82 -42 196 -67 284 -11 38 -21 76 -23 85 -7 30 -82
246 -114 324 -65 163 -184 371 -241 422 -18 16 -15 5 17 -55z"/>
<path d="M17828 17053 c12 -2 30 -2 40 0 9 3 -1 5 -23 4 -22 0 -30 -2 -17 -4z"/>
<path d="M11269 15223 c0 -511 -2 -937 -4 -948 -2 -11 -5 -42 -6 -70 -6 -140
-73 -204 -190 -183 -79 14 -137 49 -228 134 -90 85 -77 83 -141 24 -150 -139
-280 -266 -280 -275 0 -6 8 -18 18 -26 9 -9 33 -33 53 -55 137 -148 328 -250
514 -272 96 -11 235 -5 305 13 208 54 365 218 408 425 34 165 37 279 37 1245
l0 910 -243 3 -242 2 -1 -927z"/>
<path d="M13658 15977 c-37 -94 -73 -185 -79 -202 -7 -16 -13 -32 -13 -35 -1
-3 -16 -41 -33 -85 -30 -76 -74 -187 -158 -405 -20 -52 -51 -133 -70 -180 -18
-47 -49 -125 -68 -175 -172 -444 -328 -845 -338 -870 -7 -16 -13 -34 -15 -40
-1 -5 -34 -91 -73 -190 -39 -99 -71 -182 -71 -185 0 -5 460 -6 498 -1 6 0 12
5 12 11 0 9 52 145 159 416 l36 91 524 -1 c458 -1 524 -3 527 -16 2 -12 114
-312 144 -385 4 -11 17 -42 28 -70 l21 -50 241 0 c133 0 245 2 250 5 5 3 0 25
-10 50 -21 49 -46 113 -234 605 -70 182 -132 341 -138 355 -6 14 -12 30 -13
35 -2 6 -12 33 -23 60 -11 28 -50 127 -85 220 -36 94 -132 341 -212 550 -81
209 -158 409 -172 445 -13 36 -38 100 -56 143 l-31 77 -240 0 -241 0 -67 -173z
m374 -672 c31 -77 101 -255 156 -395 97 -247 117 -300 113 -310 -3 -10 -671
-5 -671 6 0 5 27 80 61 165 33 84 75 192 94 239 115 292 164 417 169 434 10
29 18 14 78 -139z"/>
<path d="M16171 14877 l0 -1273 247 0 248 0 -1 562 c0 310 3 560 7 556 8 -8
115 -160 198 -282 30 -44 97 -140 147 -213 51 -72 97 -139 103 -147 5 -8 39
-58 76 -110 36 -52 108 -156 159 -230 l93 -135 286 0 c157 0 286 1 286 2 0 3
-64 97 -70 103 -3 3 -14 18 -24 35 -11 16 -23 34 -28 40 -5 5 -127 181 -271
390 -144 209 -270 392 -280 405 -10 14 -54 77 -97 140 -43 63 -106 154 -140
202 -38 55 -58 92 -54 100 5 7 42 56 83 108 42 52 91 115 110 140 19 25 38 47
43 48 4 2 8 10 8 17 0 7 4 15 8 17 7 2 218 268 367 462 78 101 180 231 185
236 13 11 70 88 70 94 0 3 -130 6 -289 6 l-289 0 -182 -232 c-100 -128 -194
-248 -208 -267 -39 -50 -119 -151 -147 -186 -13 -16 -51 -65 -84 -108 -33 -43
-61 -74 -63 -70 -2 4 -4 195 -3 423 1 228 0 421 -3 428 -3 9 -62 12 -247 12
l-244 0 0 -1273z"/>
<path d="M19747 16143 c-2 -5 -34 -87 -71 -183 -37 -96 -77 -197 -88 -225 -11
-27 -21 -54 -23 -60 -1 -5 -7 -23 -14 -40 -7 -16 -28 -70 -47 -120 -19 -49
-46 -117 -59 -150 -13 -33 -75 -193 -138 -355 -62 -162 -118 -304 -122 -315
-4 -11 -9 -24 -11 -30 -3 -14 -82 -214 -96 -245 -6 -14 -12 -30 -13 -35 -2 -6
-52 -138 -113 -295 -119 -305 -129 -331 -131 -342 -1 -4 -13 -33 -26 -63 -14
-31 -25 -61 -25 -68 0 -10 57 -12 248 -13 l248 0 73 186 c39 102 82 212 95
245 13 33 26 67 29 76 5 14 58 16 527 16 l522 0 13 -31 c8 -17 39 -98 70 -181
31 -82 60 -159 65 -170 5 -11 19 -47 31 -81 l22 -60 249 0 c148 1 248 5 248
10 0 9 -16 51 -106 284 -29 75 -50 128 -149 387 -42 110 -88 227 -100 260 -38
97 -295 764 -322 835 -13 36 -28 74 -33 85 -18 44 -75 190 -75 195 -1 6 -113
297 -126 325 -10 23 -32 78 -34 85 0 3 -7 22 -14 43 l-13 37 -243 0 c-134 0
-246 -3 -248 -7z m283 -765 c18 -46 48 -123 67 -173 20 -49 41 -103 48 -120 7
-16 27 -68 45 -115 17 -47 38 -98 45 -115 39 -89 96 -246 92 -252 -3 -5 -155
-8 -339 -7 -281 1 -333 3 -330 15 3 17 58 161 77 204 7 17 37 91 65 165 29 74
59 149 66 165 6 17 30 77 52 135 51 132 71 180 76 180 2 0 18 -37 36 -82z"/>
<path d="M22230 14878 l0 -1274 233 1 c127 1 235 3 239 4 3 0 6 223 7 494 0
270 0 511 0 535 1 37 4 42 24 42 18 0 29 -12 48 -47 14 -27 47 -88 73 -138 27
-49 66 -124 88 -165 22 -41 73 -136 113 -210 40 -74 94 -175 120 -225 26 -49
60 -112 75 -140 15 -27 39 -73 54 -100 l27 -51 264 0 c146 0 265 3 265 6 0 3
-4 10 -9 16 -4 5 -33 56 -63 114 -31 58 -69 130 -85 160 -17 30 -54 100 -83
155 -29 55 -61 114 -70 130 -10 17 -46 84 -80 150 -34 66 -66 125 -70 130 -4
6 -37 67 -74 138 l-67 127 73 34 c197 92 314 218 373 402 25 78 29 105 29 219
1 141 -4 193 -28 270 -8 28 -16 53 -16 57 0 4 -17 37 -38 73 -93 163 -226 270
-387 314 -139 37 -192 41 -642 48 l-393 5 0 -1274z m810 787 c132 -18 216
-101 227 -225 14 -155 -58 -244 -222 -275 -16 -3 -99 -8 -182 -10 l-153 -5 0
37 c-1 62 -1 426 -1 459 l1 31 142 -3 c78 -2 163 -6 188 -9z"/>
<path d="M24603 15910 l0 -240 223 0 224 0 0 -27 c1 -16 2 -480 3 -1033 l2
-1005 238 0 c138 -1 241 3 244 8 3 6 6 469 7 1031 l1 1021 233 3 232 2 0 240
0 240 -704 0 -703 0 0 -240z"/>
<path d="M27715 16028 c-26 -68 -53 -136 -60 -153 -7 -16 -23 -57 -36 -90 -12
-33 -26 -71 -32 -85 -6 -14 -11 -27 -12 -30 -1 -3 -7 -18 -14 -35 -6 -16 -53
-136 -102 -265 -96 -248 -159 -410 -214 -550 -18 -47 -50 -128 -70 -180 -19
-52 -40 -104 -45 -115 -15 -34 -144 -369 -146 -380 -3 -12 -81 -211 -94 -240
-17 -35 -101 -259 -105 -281 -5 -20 -1 -20 244 -20 l249 0 70 181 c39 99 85
216 102 261 l32 81 522 0 522 0 22 -56 c134 -355 175 -456 183 -461 17 -11
494 -6 492 5 -1 8 -92 245 -118 310 -5 11 -9 22 -9 25 -2 7 -46 121 -57 145
-12 28 -101 258 -104 270 -1 6 -7 21 -12 35 -6 14 -41 104 -78 200 -37 96 -82
213 -100 260 -36 93 -98 253 -255 660 -56 146 -121 315 -145 375 -23 61 -55
143 -70 183 l-28 72 -242 0 -243 0 -47 -122z m395 -825 c55 -142 105 -267 110
-278 15 -35 121 -308 123 -318 2 -10 -672 -17 -678 -7 -3 5 57 161 105 275 5
11 29 72 53 135 25 63 66 167 91 230 53 136 63 162 66 175 3 14 20 45 24 45 3
0 50 -116 106 -257z"/>
<path d="M10474 13061 c-2 -2 -4 -46 -4 -98 l0 -93 14375 0 c7906 0 14375 3
14376 8 5 56 2 175 -5 180 -10 6 -28735 9 -28742 3z"/>
<path d="M32715 12187 c-61 -18 -97 -41 -142 -90 -73 -79 -87 -118 -88 -232 0
-88 3 -107 26 -155 28 -59 95 -132 144 -157 176 -93 398 -6 464 181 37 104 30
190 -22 289 -34 65 -87 116 -155 149 -54 26 -167 33 -227 15z"/>
<path d="M20458 11630 l-3 -520 -35 31 c-124 108 -298 199 -431 224 -100 19
-250 26 -314 14 -23 -4 -59 -10 -80 -13 -22 -2 -69 -14 -105 -26 -343 -115
-615 -442 -675 -810 -3 -19 -8 -48 -12 -65 -3 -16 -7 -92 -8 -167 -6 -345 97
-610 326 -838 130 -130 276 -216 444 -262 103 -29 306 -35 415 -14 163 33 316
110 440 223 l35 33 3 -110 3 -110 32 -1 c131 -2 491 2 495 6 4 3 6 2850 3
2913 -1 9 -61 12 -266 12 l-265 0 -2 -520z m-422 -742 c187 -38 364 -207 417
-398 102 -365 -67 -723 -383 -814 -114 -33 -281 -24 -385 21 -52 22 -153 93
-185 129 -114 129 -167 281 -164 469 2 136 28 227 100 358 50 91 211 205 328
233 63 14 207 16 272 2z"/>
<path d="M34127 12110 c-10 -4 -12 -93 -12 -388 0 -332 -2 -383 -15 -386 -8
-2 -68 -3 -133 -2 -65 1 -121 -2 -123 -5 -4 -7 -7 -224 -3 -244 1 -5 0 -14 -1
-20 -4 -21 -1 -167 3 -172 3 -3 65 -6 139 -6 l133 -2 0 -832 0 -832 190 -3
c104 -2 225 -2 268 0 l77 3 0 833 0 833 148 1 c81 0 152 1 158 1 8 1 11 65 10
223 l-1 223 -155 0 -155 0 -5 389 -5 389 -253 1 c-139 0 -258 -1 -265 -4z"/>
<path d="M11660 11379 c-125 -19 -161 -28 -258 -68 -239 -99 -458 -332 -543
-578 -48 -141 -64 -246 -64 -428 0 -164 7 -225 41 -343 72 -257 263 -500 489
-622 59 -32 205 -92 205 -84 0 2 12 -1 27 -7 44 -17 112 -23 243 -24 145 0
201 7 296 36 65 20 183 74 194 88 3 4 18 15 35 25 16 11 52 40 79 65 l49 46
-6 -100 c-10 -163 -26 -229 -75 -303 -89 -136 -283 -209 -532 -198 -63 3 -128
7 -145 11 -107 21 -225 78 -282 136 l-38 39 -293 0 -293 0 6 -22 c14 -45 75
-170 106 -216 149 -219 360 -351 649 -407 183 -35 451 -37 625 -6 349 64 609
260 716 541 24 64 58 196 64 249 2 20 8 64 13 98 5 35 9 505 9 1045 l0 983
-263 0 -264 0 0 -119 0 -120 -37 35 c-42 39 -147 119 -156 119 -3 0 -27 13
-54 30 -56 34 -204 84 -283 95 -72 11 -203 12 -260 4z m404 -514 c176 -47 321
-189 380 -370 30 -93 34 -210 13 -350 -20 -133 -130 -289 -259 -368 -58 -35
-173 -66 -258 -70 -174 -9 -327 44 -438 150 -59 57 -132 159 -132 186 0 7 -4
17 -9 22 -5 6 -16 42 -25 80 -22 98 -16 268 13 356 19 60 73 154 118 204 31
36 123 104 161 121 20 9 44 19 52 24 14 7 80 22 145 33 43 8 183 -3 239 -18z"/>
<path d="M14780 11379 c-98 -15 -117 -19 -180 -40 -148 -48 -264 -120 -381
-238 -155 -155 -263 -362 -295 -566 -3 -22 -10 -60 -14 -85 -9 -49 -7 -371 3
-387 3 -5 9 -25 12 -44 20 -113 84 -274 152 -376 50 -76 73 -103 165 -194 186
-185 395 -273 656 -278 235 -5 444 72 622 228 19 17 38 31 42 31 4 0 7 -35 7
-77 0 -43 0 -90 0 -105 l1 -28 268 0 267 0 0 1055 c0 580 -2 1056 -5 1056 -3
1 -123 2 -267 3 l-263 1 -1 -55 c0 -30 -1 -81 0 -112 0 -32 -2 -58 -5 -58 -3
0 -22 16 -42 35 -79 76 -232 164 -347 199 -122 36 -287 51 -395 35z m424 -508
c33 -12 80 -33 105 -48 61 -35 160 -136 195 -198 33 -59 79 -192 71 -205 -3
-5 -1 -11 3 -14 10 -6 8 -219 -1 -276 -17 -97 -97 -254 -161 -315 -114 -109
-240 -159 -401 -159 -166 -1 -284 50 -403 172 -66 68 -127 178 -152 277 -19
72 -20 256 -3 334 48 217 202 386 403 442 89 25 261 20 344 -10z"/>
<path d="M17850 11379 c-19 -4 -46 -10 -59 -13 -25 -6 -89 -36 -126 -59 -39
-24 -136 -132 -163 -181 l-27 -49 -3 129 -3 129 -229 0 c-148 0 -230 -3 -231
-10 -1 -5 -2 -481 -3 -1057 l-1 -1048 100 -1 c148 0 291 0 368 0 l68 1 -1 573
c-2 502 1 664 15 742 33 198 73 284 161 351 33 26 45 29 108 28 46 0 82 -6
103 -17 18 -9 36 -17 41 -17 5 0 16 21 25 48 17 51 45 130 105 295 l40 108
-27 13 c-64 32 -190 49 -261 35z"/>
<path d="M22882 11378 c-105 -12 -134 -18 -222 -45 -295 -90 -548 -328 -665
-627 -18 -47 -32 -86 -30 -86 2 0 -2 -18 -10 -39 -7 -21 -16 -61 -20 -87 -3
-27 -9 -74 -13 -104 -18 -138 4 -359 50 -495 26 -77 95 -220 114 -236 8 -6 14
-18 14 -25 0 -8 4 -14 8 -14 4 0 15 -12 24 -27 23 -38 133 -151 188 -193 25
-19 47 -37 50 -40 3 -3 19 -13 35 -23 131 -77 271 -128 419 -152 103 -17 328
-19 407 -5 24 4 62 10 84 13 22 3 53 10 68 16 15 6 27 9 27 6 0 -5 114 38 177
67 56 25 145 82 187 118 71 61 185 183 208 224 5 9 -33 31 -120 72 -69 32
-169 80 -221 105 l-95 45 -61 -49 c-73 -60 -196 -119 -290 -141 -91 -20 -286
-15 -365 9 -192 60 -327 198 -384 394 -9 30 -16 58 -16 63 0 4 383 8 850 8
l850 0 1 48 c2 86 -1 187 -6 212 -2 14 -7 45 -10 70 -9 64 -31 156 -53 220
-23 66 -91 204 -103 208 -5 2 -9 9 -9 15 0 13 -84 120 -134 172 -136 140 -347
248 -566 290 -91 18 -271 24 -368 13z m295 -461 c13 -2 26 -6 29 -10 4 -4 14
-7 23 -7 24 0 120 -50 178 -93 67 -49 119 -109 154 -179 49 -97 104 -88 -541
-88 l-571 0 17 33 c36 70 104 166 145 206 54 51 182 116 270 136 57 13 208 14
296 2z"/>
<path d="M26148 11385 c-2 -2 -21 -6 -43 -9 -22 -4 -49 -8 -60 -10 -39 -6
-131 -39 -190 -69 -60 -29 -202 -124 -240 -160 -20 -18 -20 -18 -25 90 l-5
108 -265 0 -265 0 0 -1053 c0 -580 3 -1056 7 -1058 9 -6 518 -8 523 -2 2 1 5
273 8 603 2 330 7 614 11 630 3 17 9 41 12 55 11 50 58 156 87 199 47 68 106
120 177 155 60 28 73 31 165 31 90 0 106 -3 154 -28 134 -69 185 -182 198
-437 3 -58 5 -354 6 -657 l1 -553 98 -1 c54 0 136 0 183 0 47 0 123 0 170 0
l86 1 -4 778 c-1 427 -6 791 -10 807 -57 229 -110 318 -257 431 -121 94 -262
142 -427 148 -51 2 -94 2 -95 1z"/>
<path d="M30500 11378 c-195 -28 -333 -71 -470 -145 -353 -190 -566 -539 -574
-943 -6 -260 67 -480 227 -690 226 -296 549 -436 989 -429 307 5 548 86 753
253 84 69 184 180 173 192 -3 3 -96 67 -206 143 l-200 138 -66 -63 c-119 -114
-282 -175 -469 -178 -87 -1 -202 10 -219 20 -4 3 -17 7 -29 9 -37 7 -130 54
-172 87 -156 120 -239 290 -239 488 -1 305 165 529 457 616 63 19 276 26 360
12 105 -17 245 -92 333 -178 l42 -42 33 20 c33 20 124 70 232 127 144 77 165
89 165 98 0 15 -67 95 -132 158 -147 143 -388 264 -583 293 -22 3 -57 9 -78
12 -60 9 -267 11 -327 2z"/>
<path d="M32545 11331 c-3 -2 -5 -478 -5 -1057 l0 -1054 70 -1 c39 0 108 0
155 0 47 0 136 0 198 0 l112 1 0 1055 c0 580 -2 1056 -5 1056 -14 4 -522 4
-525 0z"/>
<path d="M35496 11330 c-3 -4 61 -161 137 -340 9 -19 28 -64 42 -100 15 -36
32 -76 38 -90 6 -14 11 -27 12 -30 2 -6 12 -31 63 -152 22 -51 61 -145 87
-208 26 -63 53 -128 60 -145 16 -36 6 -13 209 -500 l162 -389 -17 -36 c-9 -19
-34 -71 -55 -115 -21 -44 -39 -82 -39 -85 -1 -3 -14 -32 -29 -65 -15 -33 -36
-78 -46 -100 -10 -22 -41 -89 -70 -150 -28 -60 -52 -114 -53 -120 -1 -5 -5
-12 -8 -15 -6 -6 -49 -97 -49 -105 0 -2 -13 -33 -30 -67 -16 -34 -28 -64 -25
-67 3 -2 124 -5 269 -5 l263 -1 13 30 c8 17 32 71 55 120 23 50 52 113 65 140
12 28 38 84 58 125 19 41 47 103 63 138 16 34 43 92 60 130 17 37 44 94 59
127 15 33 43 94 63 135 19 41 46 100 60 130 43 95 203 441 242 525 20 44 48
105 62 135 14 30 41 89 60 130 20 41 43 93 53 115 17 37 45 99 125 270 18 39
58 126 90 195 68 149 105 229 152 330 20 41 39 84 43 95 8 20 5 20 -262 20
l-271 0 -29 -65 c-17 -36 -41 -90 -55 -120 -14 -30 -40 -86 -58 -125 -18 -38
-42 -90 -53 -115 -11 -25 -36 -79 -55 -120 -41 -87 -134 -290 -170 -370 -13
-30 -43 -95 -66 -145 -24 -49 -50 -106 -58 -125 -9 -19 -28 -60 -42 -91 l-27
-57 -24 62 c-12 33 -33 84 -45 111 -13 28 -55 129 -95 225 -39 96 -78 189 -85
205 -37 87 -72 172 -160 385 -53 129 -108 260 -123 290 l-27 55 -268 0 c-148
0 -270 -2 -271 -5z"/>
</g>
</svg>
